<svg aria-hidden="true" style="position: absolute; width: 0; height: 0; overflow: hidden;" version="1.1" xmlns="http://www.w3.org/2000/svg" xmlns:xlink="http://www.w3.org/1999/xlink">
<defs>
<symbol id="icon-Vector" viewBox="0 0 35 32">
<path stroke-linejoin="round" stroke-linecap="round" stroke-miterlimit="4" stroke-width="3.3454" d="M30.313 5.251c-0.743-0.743-1.625-1.333-2.596-1.735s-2.011-0.609-3.062-0.609-2.091 0.207-3.062 0.609c-0.971 0.402-1.853 0.992-2.596 1.735l-1.542 1.542-1.542-1.542c-1.501-1.501-3.536-2.344-5.658-2.344s-4.158 0.843-5.658 2.344c-1.501 1.501-2.344 3.536-2.344 5.658s0.843 4.158 2.344 5.658l12.858 12.858 12.858-12.858c0.743-0.743 1.333-1.625 1.735-2.596s0.609-2.011 0.609-3.062-0.207-2.091-0.609-3.062c-0.402-0.971-0.992-1.853-1.735-2.596z"></path>
</symbol>
<symbol id="icon-map-pin" viewBox="0 0 32 32">
<path stroke-linejoin="round" stroke-linecap="butt" stroke-miterlimit="4" stroke-width="2.6" d="M16 30.66c0 0-12-8-12-17.34 0-3.18 1.26-6.24 3.5-8.48 2.26-2.26 5.3-3.52 8.5-3.52 3.18 0 6.22 1.26 8.48 3.52 2.24 2.24 3.52 5.3 3.52 8.48 0 9.34-12 17.34-12 17.34z"></path>
<path stroke-linejoin="round" stroke-linecap="butt" stroke-miterlimit="4" stroke-width="2.6" d="M16 17.32c-2.22 0-4-1.78-4-4 0-2.2 1.78-4 4-4 2.2 0 4 1.8 4 4 0 2.22-1.8 4-4 4z"></path>
</symbol>
<symbol id="icon-Rating" viewBox="0 0 34 32">
<path fill="#ffc531" style="fill: var(--color1, #ffc531)" d="M15.699 0.615l-4.469 8.464c-0.165 0.331-0.473 0.544-0.828 0.615l-9.434 1.631c-0.946 0.165-1.3 1.3-0.638 1.986l6.667 6.856c0.26 0.26 0.378 0.638 0.307 0.993l-1.348 9.481c-0.142 0.946 0.827 1.631 1.679 1.229l8.582-4.232c0.331-0.166 0.733-0.166 1.064 0l8.582 4.232c0.851 0.402 1.82-0.284 1.679-1.229l-1.348-9.481c-0.071-0.355 0.047-0.733 0.307-0.993l6.667-6.856c0.662-0.686 0.307-1.821-0.638-1.986l-9.434-1.631c-0.355-0.071-0.662-0.284-0.828-0.615l-4.468-8.464c-0.449-0.828-1.655-0.828-2.104 0z"></path>
<path fill="#ffc531" style="fill: var(--color1, #ffc531)" d="M11.23 9.079l4.468-8.464c0.449-0.828 1.655-0.828 2.104 0l4.468 8.464c0.166 0.331 0.473 0.544 0.828 0.615l9.433 1.631c0.946 0.165 1.3 1.3 0.638 1.986l-6.667 6.856c-0.26 0.26-0.378 0.638-0.307 0.993l1.348 9.481c0.142 0.946-0.828 1.631-1.679 1.229l-8.582-4.232c-0.331-0.166-0.733-0.166-1.064 0l-8.582 4.232c-0.851 0.402-1.821-0.284-1.679-1.229l1.348-9.481c0.071-0.355-0.047-0.733-0.307-0.993l-6.667-6.856c-0.662-0.686-0.307-1.821 0.638-1.986l9.434-1.631c0.355-0.071 0.662-0.284 0.828-0.615zM13.76 10.403c-0.591 1.111-1.655 1.868-2.884 2.081l-6.336 1.111 4.492 4.61c0.851 0.875 1.277 2.128 1.088 3.357l-0.922 6.384 5.769-2.837c1.135-0.567 2.435-0.567 3.546 0l5.793 2.837-0.922-6.384c-0.189-1.229 0.213-2.483 1.088-3.357l4.492-4.61-6.336-1.111c-1.229-0.213-2.293-0.969-2.884-2.081l-3.003-5.674-2.979 5.674z"></path>
</symbol>
</defs>
</svg>