<svg aria-hidden="true" style="position: absolute; width: 0; height: 0; overflow: hidden;" version="1.1" xmlns="http://www.w3.org/2000/svg" xmlns:xlink="http://www.w3.org/1999/xlink">
<defs>
<symbol id="icon-Vector" viewBox="0 0 35 32">
<path stroke-linejoin="round" stroke-linecap="round" stroke-miterlimit="4" stroke-width="3.3454" d="M30.313 5.251c-0.743-0.743-1.625-1.333-2.596-1.735s-2.011-0.609-3.062-0.609-2.091 0.207-3.062 0.609c-0.971 0.402-1.853 0.992-2.596 1.735l-1.542 1.542-1.542-1.542c-1.501-1.501-3.536-2.344-5.658-2.344s-4.158 0.843-5.658 2.344c-1.501 1.501-2.344 3.536-2.344 5.658s0.843 4.158 2.344 5.658l12.858 12.858 12.858-12.858c0.743-0.743 1.333-1.625 1.735-2.596s0.609-2.011 0.609-3.062-0.207-2.091-0.609-3.062c-0.402-0.971-0.992-1.853-1.735-2.596z"></path>
</symbol>
<symbol id="icon-map-pin" viewBox="0 0 32 32">
<path stroke-linejoin="round" stroke-linecap="butt" stroke-miterlimit="4" stroke-width="2.6" d="M16 30.66c0 0-12-8-12-17.34 0-3.18 1.26-6.24 3.5-8.48 2.26-2.26 5.3-3.52 8.5-3.52 3.18 0 6.22 1.26 8.48 3.52 2.24 2.24 3.52 5.3 3.52 8.48 0 9.34-12 17.34-12 17.34z"></path>
<path stroke-linejoin="round" stroke-linecap="butt" stroke-miterlimit="4" stroke-width="2.6" d="M16 17.32c-2.22 0-4-1.78-4-4 0-2.2 1.78-4 4-4 2.2 0 4 1.8 4 4 0 2.22-1.8 4-4 4z"></path>
</symbol>
<symbol id="icon-Rating" viewBox="0 0 34 32">
<path fill="#ffc531" style="fill: var(--color1, #ffc531)" d="M15.699 0.615l-4.469 8.464c-0.165 0.331-0.473 0.544-0.828 0.615l-9.434 1.631c-0.946 0.165-1.3 1.3-0.638 1.986l6.667 6.856c0.26 0.26 0.378 0.638 0.307 0.993l-1.348 9.481c-0.142 0.946 0.827 1.631 1.679 1.229l8.582-4.232c0.331-0.166 0.733-0.166 1.064 0l8.582 4.232c0.851 0.402 1.82-0.284 1.679-1.229l-1.348-9.481c-0.071-0.355 0.047-0.733 0.307-0.993l6.667-6.856c0.662-0.686 0.307-1.821-0.638-1.986l-9.434-1.631c-0.355-0.071-0.662-0.284-0.828-0.615l-4.468-8.464c-0.449-0.828-1.655-0.828-2.104 0z"></path>
<path fill="#ffc531" style="fill: var(--color1, #ffc531)" d="M11.23 9.079l4.468-8.464c0.449-0.828 1.655-0.828 2.104 0l4.468 8.464c0.166 0.331 0.473 0.544 0.828 0.615l9.433 1.631c0.946 0.165 1.3 1.3 0.638 1.986l-6.667 6.856c-0.26 0.26-0.378 0.638-0.307 0.993l1.348 9.481c0.142 0.946-0.828 1.631-1.679 1.229l-8.582-4.232c-0.331-0.166-0.733-0.166-1.064 0l-8.582 4.232c-0.851 0.402-1.821-0.284-1.679-1.229l1.348-9.481c0.071-0.355-0.047-0.733-0.307-0.993l-6.667-6.856c-0.662-0.686-0.307-1.821 0.638-1.986l9.434-1.631c0.355-0.071 0.662-0.284 0.828-0.615zM13.76 10.403c-0.591 1.111-1.655 1.868-2.884 2.081l-6.336 1.111 4.492 4.61c0.851 0.875 1.277 2.128 1.088 3.357l-0.922 6.384 5.769-2.837c1.135-0.567 2.435-0.567 3.546 0l5.793 2.837-0.922-6.384c-0.189-1.229 0.213-2.483 1.088-3.357l4.492-4.61-6.336-1.111c-1.229-0.213-2.293-0.969-2.884-2.081l-3.003-5.674-2.979 5.674z"></path>
</symbol>
<symbol id="icon-Vertical-container" viewBox="0 0 32 32">
<path d="M15.55 4.79c-1.35 0.010-2.66 0.49-3.71 1.36-1.040 0.88-1.76 2.1-2.020 3.46l-0.11 0.54c-0.020 0.12-0.030 0.25-0.010 0.37s0.070 0.24 0.13 0.34c0.070 0.11 0.15 0.2 0.25 0.27s0.21 0.12 0.33 0.14c0.12 0.020 0.24 0.020 0.36 0 0.12-0.030 0.23-0.080 0.33-0.15s0.18-0.16 0.25-0.26c0.060-0.11 0.11-0.22 0.13-0.35l0.1-0.53c0.2-1.010 0.76-1.91 1.57-2.52 0.8-0.61 1.8-0.89 2.8-0.79 1 0.11 1.92 0.58 2.59 1.34 0.68 0.76 1.050 1.76 1.060 2.78 0 1.11-0.43 2.16-1.19 2.94s-1.79 1.22-2.86 1.22h-13.050c-0.24 0-0.47 0.1-0.64 0.27s-0.26 0.41-0.26 0.65c0 0.25 0.090 0.48 0.26 0.65 0.17 0.18 0.4 0.27 0.64 0.27h13.050c1.52-0.030 2.97-0.68 4.040-1.8s1.66-2.63 1.66-4.19c0-1.57-0.59-3.070-1.66-4.19-1.060-1.13-2.51-1.78-4.040-1.82zM25.9 13.1c-1.2 0-2.34 0.49-3.19 1.35-0.84 0.87-1.31 2.040-1.31 3.27 0 0.24 0.090 0.48 0.26 0.65s0.4 0.27 0.64 0.27c0.23 0 0.46-0.1 0.63-0.27s0.27-0.41 0.27-0.65c0-0.55 0.15-1.080 0.45-1.54s0.72-0.81 1.21-1.020c0.5-0.21 1.040-0.26 1.56-0.16 0.53 0.11 1.010 0.37 1.38 0.76 0.38 0.39 0.64 0.88 0.74 1.42 0.11 0.53 0.050 1.090-0.15 1.6-0.2 0.5-0.55 0.94-0.99 1.24-0.45 0.3-0.97 0.47-1.5 0.47h-23.4c-0.24 0-0.47 0.090-0.64 0.27-0.17 0.17-0.26 0.41-0.26 0.65 0 0.25 0.090 0.48 0.26 0.65 0.17 0.18 0.4 0.27 0.64 0.27h17.54c0.6 0 1.17 0.25 1.59 0.68 0.43 0.44 0.66 1.020 0.66 1.64 0 0.61-0.24 1.19-0.66 1.63-0.42 0.43-1 0.67-1.59 0.67-0.54 0-1.060-0.2-1.47-0.55-0.41-0.36-0.69-0.85-0.78-1.39l-0.010-0.060c-0.010-0.12-0.050-0.24-0.12-0.35-0.060-0.1-0.14-0.19-0.24-0.27-0.090-0.070-0.2-0.12-0.32-0.15s-0.24-0.040-0.36-0.020c-0.12 0.020-0.23 0.070-0.33 0.14-0.1 0.060-0.19 0.15-0.26 0.25s-0.12 0.22-0.14 0.34c-0.020 0.12-0.030 0.24 0 0.36l0.010 0.060c0.16 0.97 0.65 1.86 1.38 2.5 0.74 0.64 1.67 0.99 2.64 0.99 1.070 0 2.1-0.44 2.86-1.22s1.19-1.84 1.2-2.94c0-0.85-0.26-1.65-0.69-2.31h2.49c1.19 0 2.33-0.48 3.18-1.35 0.84-0.86 1.32-2.040 1.32-3.26 0-1.23-0.48-2.4-1.32-3.27-0.85-0.86-1.99-1.35-3.18-1.35z"></path>
<path d="M6.5 14.95h-4c-0.24 0-0.47 0.1-0.64 0.27-0.090 0.090-0.16 0.2-0.21 0.32-0.030 0.11-0.050 0.22-0.050 0.33 0 0.25 0.090 0.48 0.26 0.65 0.17 0.18 0.4 0.27 0.64 0.27h13.050c0.3 0 0.6-0.030 0.89-0.090 0.69-0.13 1.35-0.38 1.95-0.74 0.1-0.070 0.2-0.13 0.3-0.2 0.12-0.080 0.24-0.18 0.36-0.27 0.19-0.16 0.37-0.32 0.54-0.5 0.24-0.25 0.45-0.52 0.64-0.81 0.53-0.78 0.86-1.69 0.98-2.64 0.030-0.24 0.040-0.49 0.040-0.74 0-0.48-0.050-0.95-0.16-1.41-0.24-1.040-0.76-2-1.5-2.78-1.060-1.13-2.51-1.78-4.040-1.82-1.35 0.010-2.66 0.49-3.71 1.36-0.090 0.080-0.19 0.17-0.28 0.25-0.89 0.86-1.5 1.98-1.74 3.21l-0.070 0.34-0.040 0.2c-0.020 0.12-0.030 0.25-0.010 0.37s0.070 0.24 0.13 0.34c0.070 0.11 0.15 0.2 0.25 0.27s0.21 0.12 0.33 0.14c0.12 0.020 0.24 0.020 0.36 0 0.12-0.030 0.23-0.080 0.33-0.15s0.18-0.16 0.25-0.26c0.060-0.11 0.11-0.22 0.13-0.35l0.1-0.53c0.010-0.010 0.010-0.020 0.010-0.030 0.2-1 0.76-1.88 1.56-2.49 0.060-0.040 0.12-0.090 0.18-0.13 0.65-0.43 1.4-0.67 2.17-0.68 0.020 0 0.030 0 0.050 0 0.13 0 0.27 0.010 0.4 0.020 1 0.11 1.92 0.58 2.59 1.34 0.62 0.7 0.99 1.58 1.050 2.52 0 0.080 0 0.17 0.010 0.26 0 1.11-0.43 2.16-1.19 2.94-0.45 0.46-0.99 0.8-1.57 1-0.42 0.14-0.85 0.22-1.29 0.22h-9.050zM24.24 13.43c-0.26 0.1-0.5 0.23-0.74 0.38-0.28 0.18-0.55 0.4-0.79 0.64-0.3 0.31-0.55 0.66-0.75 1.040-0.31 0.56-0.5 1.19-0.55 1.84 0 0.040-0.010 0.080-0.010 0.12 0 0.090 0 0.18 0 0.27 0 0.020 0 0.040 0 0.060 0.010 0.22 0.1 0.43 0.26 0.59 0.17 0.17 0.4 0.27 0.64 0.27 0.23 0 0.46-0.1 0.63-0.27 0.1-0.1 0.17-0.22 0.22-0.36 0.030-0.090 0.050-0.19 0.050-0.29 0-0.13 0-0.26 0.020-0.39 0.060-0.41 0.2-0.8 0.43-1.15 0.18-0.27 0.39-0.5 0.65-0.69 0.17-0.13 0.36-0.24 0.56-0.33 0.16-0.070 0.33-0.12 0.5-0.16 0.030 0 0.070-0.010 0.11-0.020 0.31-0.050 0.64-0.040 0.95 0.020 0.53 0.11 1.010 0.37 1.38 0.76 0.38 0.39 0.64 0.88 0.74 1.42 0.11 0.53 0.050 1.090-0.15 1.6-0.11 0.28-0.27 0.54-0.47 0.76-0.060 0.080-0.14 0.16-0.21 0.23-0.1 0.090-0.2 0.17-0.31 0.25-0.34 0.23-0.72 0.38-1.11 0.44-0.090 0.010-0.18 0.020-0.27 0.020-0.040 0.010-0.080 0.010-0.12 0.010h-23.4c-0.24 0-0.47 0.090-0.64 0.27-0.17 0.17-0.26 0.41-0.26 0.65 0 0.11 0.020 0.23 0.050 0.33 0.050 0.12 0.12 0.23 0.21 0.32 0.17 0.18 0.4 0.27 0.64 0.27h17.54c0.6 0 1.17 0.25 1.59 0.68 0.18 0.19 0.33 0.4 0.44 0.63 0.080 0.18 0.15 0.38 0.18 0.58 0.010 0.050 0.020 0.090 0.020 0.14 0.020 0.090 0.020 0.19 0.020 0.29 0 0.29-0.050 0.57-0.16 0.84-0.11 0.29-0.28 0.56-0.5 0.79-0.3 0.3-0.67 0.51-1.060 0.61-0.18 0.040-0.35 0.060-0.53 0.060-0.54 0-1.060-0.2-1.47-0.55-0.29-0.25-0.51-0.56-0.65-0.91-0.060-0.16-0.1-0.32-0.13-0.48l-0.010-0.060c-0.010-0.12-0.050-0.24-0.12-0.35-0.060-0.1-0.14-0.19-0.24-0.27-0.030-0.020-0.070-0.050-0.1-0.070-0.070-0.040-0.14-0.060-0.22-0.080-0.12-0.030-0.24-0.040-0.36-0.020s-0.23 0.070-0.33 0.14c-0.1 0.060-0.19 0.15-0.26 0.25s-0.12 0.22-0.14 0.34c-0.020 0.12-0.030 0.24 0 0.36l0.010 0.060c0.010 0.060 0.020 0.12 0.030 0.18 0.14 0.68 0.45 1.32 0.89 1.84 0.14 0.17 0.3 0.33 0.46 0.48 0.44 0.38 0.95 0.66 1.5 0.82 0.37 0.11 0.75 0.17 1.14 0.17 1.070 0 2.1-0.44 2.86-1.22 0.19-0.2 0.37-0.41 0.51-0.64 0.29-0.44 0.49-0.93 0.6-1.45 0.060-0.28 0.080-0.56 0.090-0.85 0-0.42-0.070-0.83-0.18-1.21-0.12-0.39-0.29-0.76-0.51-1.1h2.49c0.030 0 0.070 0 0.1 0 0.31-0.010 0.61-0.040 0.9-0.11 0.59-0.14 1.15-0.4 1.64-0.77 0.19-0.14 0.37-0.3 0.54-0.47 0.84-0.86 1.32-2.040 1.32-3.26 0-1.23-0.48-2.4-1.32-3.27-0.81-0.83-1.9-1.31-3.050-1.35-0.040 0-0.090 0-0.13 0-0.58 0-1.14 0.12-1.66 0.33z"></path>
</symbol>
<symbol id="icon-TV" viewBox="0 0 32 32">
<path stroke-linejoin="round" stroke-linecap="butt" stroke-miterlimit="4" stroke-width="1.8" d="M8 26c-2.22 0-4-1.79-4-4v-10c0-2.22 1.78-4 4-4h16c2.21 0 4 1.78 4 4v10c0 2.21-1.79 4-4 4h-16z"></path>
<path stroke-linejoin="round" stroke-linecap="round" stroke-miterlimit="4" stroke-width="1.8" d="M12 30h8"></path>
<path stroke-linejoin="round" stroke-linecap="round" stroke-miterlimit="4" stroke-width="1.8" d="M16 8l6-6"></path>
<path stroke-linejoin="round" stroke-linecap="round" stroke-miterlimit="4" stroke-width="1.8" d="M16 8l-6-6"></path>
</symbol>
<symbol id="icon-Shower" viewBox="0 0 32 32">
<path stroke-linejoin="round" stroke-linecap="round" stroke-miterlimit="4" stroke-width="2" d="M5.33 5.33l3.33 3.33M18 8.66c-1.25-1.22-2.92-1.89-4.66-1.88-1.74 0-3.4 0.7-4.63 1.93s-1.93 2.89-1.93 4.63c-0.010 1.74 0.66 3.41 1.88 4.66M20 6.66l-13.34 13.34M18.66 22.66v0.020M13.33 21.33v0.010M17.33 17.33v0.010M21.33 13.33v0.010M14.66 26.66v0.020M22.66 18.66v0.020M26.66 14.66v0.020"></path>
</symbol>
<symbol id="icon-Kitchen" viewBox="0 0 32 32">
<path stroke-linejoin="round" stroke-linecap="round" stroke-miterlimit="4" stroke-width="1.8" d="M25.33 20h-6.67c-0.030-4.91 0.25-9.88 6.67-16v24h-1.33v-4M10.66 5.33v22.67M6.66 5.33v4c0 1.060 0.42 2.080 1.17 2.83s1.77 1.17 2.83 1.17c1.060 0 2.080-0.42 2.83-1.17s1.17-1.77 1.17-2.83v-4"></path>
</symbol>
<symbol id="icon-Step" viewBox="0 0 32 32">
<path stroke-linejoin="round" stroke-linecap="round" stroke-miterlimit="4" stroke-width="1.8" d="M22.66 28h1.34c0.7 0 1.38-0.29 1.88-0.79s0.78-1.17 0.78-1.88c0-0.71-0.28-1.39-0.78-1.89s-1.18-0.78-1.88-0.78h-1.34v5.34zM22.66 14.66h2c0.53 0 1.040-0.21 1.42-0.58 0.37-0.38 0.58-0.89 0.58-1.42s-0.21-1.040-0.58-1.41c-0.38-0.38-0.89-0.59-1.42-0.59h-2v6.67M4.78 8.55c0.5 0.5 1.17 0.78 1.88 0.78s1.39-0.28 1.89-0.78c0.5-0.5 0.78-1.18 0.78-1.89s-0.28-1.38-0.78-1.88c-0.5-0.5-1.18-0.78-1.89-0.78s-1.38 0.28-1.88 0.78c-0.5 0.5-0.78 1.17-0.78 1.88s0.28 1.39 0.78 1.89z"></path>
<path stroke-linejoin="round" stroke-linecap="round" stroke-miterlimit="4" stroke-width="1.8" d="M6.66 9.33v4c0 0.35 0.14 0.69 0.39 0.94s0.59 0.39 0.95 0.39h9.33M12 14.66v9.34c0 0.35 0.14 0.69 0.39 0.94s0.58 0.39 0.94 0.39h4"></path>
</symbol>
<symbol id="icon-Button-2" viewBox="0 0 46 32">
<path d="M2.606 1.794h12.4c0.114 0 0.206-0.046 0.286-0.114l1.189-1.166c0.343-0.331 0.811-0.514 1.303-0.514h18.811c0.88 0 1.691 0.423 2.171 1.131l2.263 3.303c0.32 0.469 0.343 1.063 0.080 1.566-0.274 0.491-0.8 0.8-1.383 0.8h-9.691v0.96h4.96c1.314 0 2.503 0.754 3.017 1.943l2.914 6.651 2.549 0.994c1.36 0.526 2.24 1.794 2.24 3.223v6.16c0 0.914-0.777 1.669-1.714 1.669h-2.96c-0.343 2.034-2.171 3.6-4.354 3.6s-4-1.566-4.354-3.6h-16.194c-0.354 2.034-2.171 3.6-4.354 3.6s-4-1.566-4.354-3.6h-5.92c-0.834 0-1.509-0.674-1.509-1.486v-22.571c0-1.406 1.166-2.549 2.606-2.549zM36.686 30.583c1.634 0 2.971-1.291 2.971-2.891s-1.337-2.891-2.971-2.891c-1.634 0-2.971 1.291-2.971 2.891s1.337 2.891 2.971 2.891zM30.034 26.994h2.297c0.011-0.046 0.023-0.080 0.023-0.114 0.011-0.023 0.011-0.046 0.011-0.069 0.011-0.057 0.034-0.103 0.046-0.16 0-0.011 0-0.023 0-0.034 0.023-0.069 0.046-0.137 0.057-0.194 0.011-0.023 0.023-0.034 0.023-0.057 0.011-0.046 0.034-0.091 0.046-0.137 0.011-0.023 0.023-0.046 0.034-0.069 0.011-0.034 0.023-0.080 0.046-0.114 0.011-0.023 0.023-0.057 0.034-0.080 0.011-0.034 0.023-0.069 0.046-0.103 0.011-0.023 0.023-0.057 0.034-0.080 0.023-0.034 0.034-0.069 0.057-0.103 0.011-0.023 0.023-0.046 0.046-0.069 0.011-0.034 0.034-0.069 0.057-0.103 0.011-0.023 0.023-0.046 0.046-0.069 0.023-0.034 0.034-0.069 0.057-0.103 0.023-0.023 0.034-0.046 0.046-0.069 0.023-0.034 0.057-0.069 0.080-0.103 0.011-0.023 0.023-0.034 0.046-0.057 0.034-0.046 0.069-0.091 0.103-0.137 0.011 0 0.011-0.011 0.023-0.011 0.034-0.057 0.080-0.103 0.126-0.149 0.011-0.023 0.034-0.034 0.046-0.046 0.034-0.034 0.057-0.069 0.091-0.103 0.023-0.011 0.046-0.034 0.057-0.057 0.034-0.023 0.057-0.046 0.091-0.080 0.023-0.011 0.046-0.034 0.057-0.057 0.034-0.023 0.069-0.046 0.091-0.069l0.069-0.057c0.034-0.023 0.057-0.046 0.091-0.069 0.023-0.023 0.046-0.034 0.069-0.046 0.034-0.023 0.069-0.046 0.103-0.069 0.023-0.023 0.046-0.034 0.069-0.046 0.034-0.023 0.069-0.046 0.103-0.069 0.023-0.011 0.046-0.034 0.069-0.046 0.034-0.023 0.080-0.046 0.114-0.057 0.023-0.011 0.034-0.023 0.057-0.034 0.057-0.034 0.114-0.057 0.171-0.091 0 0 0.011 0 0.011 0 0.057-0.034 0.126-0.057 0.183-0.080 0.023-0.011 0.046-0.023 0.069-0.034 0.034-0.011 0.080-0.023 0.126-0.046 0.023-0.011 0.046-0.011 0.080-0.023s0.069-0.034 0.114-0.046c0.023 0 0.057-0.011 0.080-0.023 0.046-0.011 0.080-0.023 0.114-0.034 0.034 0 0.057-0.011 0.091-0.011 0.034-0.011 0.080-0.023 0.114-0.034 0.034 0 0.057-0.011 0.091-0.011 0.034-0.011 0.080-0.023 0.126-0.023 0.023-0.011 0.057-0.011 0.080-0.011 0.046-0.011 0.091-0.011 0.126-0.023 0.034 0 0.057 0 0.091-0.011 0.046 0 0.091 0 0.137-0.011 0.023 0 0.046 0 0.069 0 0.069 0 0.149 0 0.217 0s0.149 0 0.217 0c0.023 0 0.046 0 0.069 0 0.046 0.011 0.103 0.011 0.149 0.011 0.023 0.011 0.057 0.011 0.080 0.011 0.046 0.011 0.080 0.011 0.126 0.023 0.034 0 0.057 0 0.091 0.011 0.034 0 0.080 0.011 0.114 0.023 0.034 0 0.057 0.011 0.091 0.011 0.034 0.011 0.080 0.023 0.114 0.034 0.034 0 0.057 0.011 0.091 0.011 0.034 0.011 0.080 0.023 0.114 0.034 0.023 0.011 0.057 0.023 0.080 0.023 0.046 0.011 0.080 0.034 0.126 0.046 0.023 0.011 0.046 0.011 0.069 0.023 0.046 0.023 0.091 0.034 0.137 0.046 0.011 0.011 0.034 0.023 0.057 0.034 0.057 0.023 0.126 0.046 0.183 0.080 0.011 0 0.011 0 0.011 0 0.057 0.034 0.114 0.057 0.171 0.091 0.023 0.011 0.034 0.023 0.057 0.034 0.046 0.011 0.080 0.034 0.114 0.057 0.023 0.011 0.046 0.034 0.069 0.046 0.034 0.023 0.069 0.046 0.103 0.069 0.023 0.011 0.057 0.023 0.080 0.046s0.057 0.046 0.091 0.069c0.023 0.011 0.046 0.023 0.069 0.046 0.034 0.023 0.057 0.046 0.091 0.069l0.069 0.057c0.034 0.023 0.057 0.046 0.091 0.069 0.023 0.023 0.034 0.046 0.057 0.057 0.034 0.034 0.057 0.057 0.091 0.080 0.023 0.023 0.034 0.046 0.057 0.057 0.034 0.034 0.069 0.069 0.091 0.103 0.023 0.011 0.034 0.023 0.046 0.046 0.046 0.046 0.091 0.091 0.137 0.149 0 0 0.011 0.011 0.011 0.011 0.034 0.046 0.069 0.091 0.114 0.137 0.011 0.023 0.023 0.034 0.034 0.057 0.023 0.034 0.057 0.069 0.080 0.103 0.011 0.023 0.023 0.046 0.046 0.069 0.023 0.034 0.046 0.069 0.069 0.103 0.011 0.023 0.023 0.046 0.034 0.069 0.023 0.034 0.046 0.069 0.069 0.103 0.011 0.023 0.023 0.046 0.034 0.069 0.023 0.034 0.034 0.069 0.057 0.103 0.011 0.023 0.023 0.057 0.034 0.080 0.023 0.034 0.034 0.069 0.057 0.103 0.011 0.023 0.023 0.057 0.023 0.080 0.023 0.034 0.034 0.080 0.057 0.114 0 0.023 0.011 0.046 0.023 0.069 0.011 0.046 0.034 0.091 0.046 0.137 0.011 0.023 0.011 0.034 0.023 0.057 0.023 0.057 0.034 0.126 0.057 0.194 0 0.011 0 0.023 0 0.034 0.023 0.057 0.034 0.103 0.046 0.16 0 0.023 0.011 0.046 0.011 0.069 0.011 0.034 0.011 0.069 0.023 0.114h2.96c0.149 0 0.263-0.126 0.263-0.263v-2.949h-1.12v-1.406h1.12v-1.806c0-0.857-0.514-1.611-1.326-1.92l-2.697-1.051h-10.206v9.394zM30.034 16.194h9.246l-2.594-5.943c-0.286-0.663-0.949-1.086-1.691-1.086h-4.96v7.029zM11.783 30.583c1.634 0 2.971-1.291 2.971-2.891s-1.337-2.891-2.971-2.891c-0.046 0-0.103 0-0.149 0-1.371 0.069-2.491 1.040-2.754 2.309-0.011 0.046-0.023 0.091-0.034 0.149-0.011 0.091-0.023 0.183-0.023 0.286-0.011 0.046-0.011 0.103-0.011 0.149 0 1.6 1.337 2.891 2.971 2.891zM1.44 22.377h1.12v1.406h-1.12v3.131c0 0.046 0.034 0.080 0.069 0.080h5.92c0.011-0.046 0.011-0.080 0.023-0.114 0-0.023 0.011-0.046 0.011-0.069 0.011-0.057 0.023-0.103 0.046-0.16 0-0.011 0-0.023 0-0.034 0.023-0.069 0.046-0.126 0.057-0.194 0.011-0.023 0.023-0.046 0.023-0.057 0.011-0.046 0.034-0.091 0.046-0.137 0.011-0.023 0.023-0.046 0.034-0.069 0.011-0.034 0.023-0.080 0.046-0.114 0.011-0.023 0.023-0.057 0.034-0.080 0.011-0.034 0.023-0.069 0.046-0.103 0.011-0.023 0.023-0.057 0.034-0.080 0.023-0.034 0.034-0.069 0.057-0.103 0.011-0.023 0.023-0.046 0.046-0.069 0.011-0.034 0.034-0.069 0.057-0.103 0.011-0.023 0.023-0.046 0.046-0.069 0.011-0.034 0.034-0.069 0.057-0.103 0.023-0.023 0.034-0.046 0.046-0.069 0.023-0.034 0.057-0.069 0.080-0.103 0.011-0.023 0.023-0.034 0.046-0.057 0.034-0.046 0.069-0.091 0.103-0.126 0-0.011 0.011-0.023 0.011-0.023 0.046-0.057 0.091-0.103 0.137-0.149 0.011-0.023 0.034-0.034 0.046-0.046 0.034-0.034 0.057-0.069 0.091-0.103 0.023-0.011 0.034-0.034 0.057-0.057 0.034-0.023 0.057-0.046 0.091-0.080 0.023-0.011 0.046-0.034 0.057-0.057 0.034-0.023 0.069-0.046 0.091-0.069s0.046-0.034 0.069-0.057c0.034-0.023 0.057-0.046 0.091-0.069 0.023-0.023 0.046-0.034 0.069-0.046 0.034-0.023 0.069-0.046 0.103-0.069 0.023-0.023 0.046-0.034 0.069-0.046 0.034-0.023 0.069-0.046 0.103-0.069 0.023-0.011 0.046-0.034 0.069-0.046 0.034-0.023 0.069-0.046 0.114-0.057 0.023-0.011 0.034-0.023 0.057-0.034 0.057-0.034 0.114-0.057 0.171-0.091 0 0 0.011 0 0.011 0 0.057-0.034 0.126-0.057 0.183-0.080 0.023-0.011 0.046-0.023 0.069-0.034 0.034-0.011 0.080-0.023 0.126-0.046 0.023-0.011 0.046-0.011 0.080-0.023s0.069-0.034 0.114-0.046c0.023 0 0.057-0.011 0.080-0.023 0.046-0.011 0.080-0.023 0.114-0.034 0.034 0 0.057-0.011 0.091-0.011 0.034-0.011 0.080-0.023 0.114-0.034 0.034 0 0.057-0.011 0.091-0.011 0.034-0.011 0.080-0.023 0.114-0.023 0.034-0.011 0.057-0.011 0.091-0.011 0.046-0.011 0.080-0.011 0.126-0.023 0.034 0 0.057 0 0.080-0.011 0.057 0 0.103 0 0.149-0.011 0.023 0 0.046 0 0.069 0 0.069 0 0.149 0 0.217 0s0.149 0 0.217 0c0.023 0 0.046 0 0.069 0 0.046 0.011 0.091 0.011 0.149 0.011 0.023 0.011 0.046 0.011 0.080 0.011 0.046 0.011 0.080 0.011 0.126 0.023 0.034 0 0.057 0 0.091 0.011 0.034 0 0.080 0.011 0.114 0.023 0.034 0 0.057 0.011 0.091 0.011 0.034 0.011 0.080 0.023 0.114 0.034 0.034 0 0.057 0.011 0.091 0.011 0.034 0.011 0.080 0.023 0.114 0.034 0.023 0.011 0.057 0.023 0.080 0.023 0.046 0.011 0.080 0.034 0.126 0.046 0.023 0.011 0.046 0.011 0.069 0.023 0.046 0.023 0.091 0.034 0.137 0.046 0.011 0.011 0.034 0.023 0.057 0.034 0.057 0.023 0.126 0.046 0.183 0.080 0.011 0 0.011 0 0.011 0 0.057 0.034 0.114 0.057 0.171 0.091 0.023 0.011 0.034 0.023 0.057 0.034 0.046 0.011 0.080 0.034 0.114 0.057 0.023 0.011 0.046 0.034 0.069 0.046 0.034 0.023 0.069 0.046 0.103 0.069 0.023 0.011 0.046 0.023 0.080 0.046 0.023 0.023 0.057 0.046 0.091 0.069 0.023 0.011 0.046 0.023 0.069 0.046 0.034 0.023 0.057 0.046 0.091 0.069 0.023 0.023 0.046 0.034 0.069 0.057s0.057 0.046 0.091 0.069c0.011 0.023 0.034 0.046 0.057 0.057 0.034 0.034 0.057 0.057 0.091 0.080 0.023 0.023 0.034 0.046 0.057 0.057 0.034 0.034 0.069 0.069 0.091 0.103 0.023 0.011 0.034 0.023 0.046 0.046 0.046 0.046 0.091 0.091 0.137 0.149 0 0 0.011 0.011 0.011 0.011 0.034 0.046 0.069 0.091 0.103 0.137 0.023 0.023 0.034 0.034 0.046 0.057 0.023 0.034 0.057 0.069 0.080 0.103 0.011 0.023 0.023 0.046 0.046 0.069 0.023 0.034 0.046 0.069 0.057 0.103 0.023 0.023 0.034 0.046 0.046 0.069 0.023 0.034 0.046 0.069 0.057 0.103 0.023 0.023 0.034 0.046 0.046 0.069 0.023 0.034 0.034 0.069 0.057 0.103 0.011 0.023 0.023 0.057 0.034 0.080 0.023 0.034 0.034 0.069 0.046 0.103 0.011 0.023 0.023 0.057 0.034 0.080 0.023 0.034 0.034 0.080 0.057 0.114 0 0.023 0.011 0.046 0.023 0.069 0.011 0.046 0.034 0.091 0.046 0.137 0.011 0.023 0.011 0.034 0.023 0.057 0.011 0.057 0.034 0.126 0.057 0.194 0 0.011 0 0.023 0 0.034 0.023 0.046 0.034 0.103 0.046 0.16 0 0.023 0.011 0.046 0.011 0.069 0.011 0.034 0.011 0.069 0.023 0.114h12.446v-20.903c0-0.389 0.331-0.697 0.72-0.697h10.423c0.023 0 0.069 0 0.103-0.069 0.034-0.057 0.011-0.103 0-0.114l-2.251-3.303c-0.229-0.32-0.583-0.503-0.983-0.503h-18.811c-0.114 0-0.206 0.034-0.286 0.103l-1.189 1.166c-0.343 0.343-0.811 0.526-1.303 0.526h-12.4c-0.651 0-1.166 0.514-1.166 1.143v18.034z"></path>
<path d="M5.531 7.189h8.811c1.017 0 1.851 0.811 1.851 1.806v4.103c0 0.994-0.834 1.806-1.851 1.806h-8.811c-1.017 0-1.851-0.811-1.851-1.806v-4.103c0-0.994 0.834-1.806 1.851-1.806zM5.12 13.097c0 0.217 0.183 0.389 0.411 0.389h8.811c0.229 0 0.411-0.171 0.411-0.389v-4.103c0-0.217-0.183-0.4-0.411-0.4h-8.811c-0.229 0-0.411 0.183-0.411 0.4v4.103z"></path>
</symbol>
<symbol id="icon-Button-3" viewBox="0 0 46 32">
<path d="M2.606 1.794h12.4c0.114 0 0.206-0.046 0.286-0.114l1.189-1.166c0.343-0.331 0.811-0.514 1.303-0.514h18.811c0.88 0 1.691 0.423 2.171 1.131l2.263 3.303c0.32 0.469 0.343 1.063 0.080 1.566-0.274 0.491-0.8 0.8-1.383 0.8h-9.691v0.96h4.96c1.314 0 2.503 0.754 3.017 1.943l2.914 6.651 2.549 0.994c1.36 0.526 2.24 1.794 2.24 3.223v6.16c0 0.914-0.777 1.669-1.714 1.669h-2.96c-0.343 2.034-2.171 3.6-4.354 3.6s-4-1.566-4.354-3.6h-16.194c-0.354 2.034-2.171 3.6-4.354 3.6s-4-1.566-4.354-3.6h-5.92c-0.834 0-1.509-0.674-1.509-1.486v-22.571c0-1.406 1.166-2.549 2.606-2.549zM36.686 30.583c1.634 0 2.971-1.291 2.971-2.891s-1.337-2.891-2.971-2.891c-1.634 0-2.971 1.291-2.971 2.891s1.337 2.891 2.971 2.891zM30.034 26.994h2.297c0.011-0.046 0.023-0.080 0.023-0.114 0.011-0.023 0.011-0.046 0.011-0.069 0.011-0.057 0.034-0.103 0.046-0.16 0-0.011 0-0.023 0-0.034 0.023-0.069 0.046-0.137 0.057-0.194 0.011-0.023 0.023-0.034 0.023-0.057 0.011-0.046 0.034-0.091 0.046-0.137 0.011-0.023 0.023-0.046 0.034-0.069 0.011-0.034 0.023-0.080 0.046-0.114 0.011-0.023 0.023-0.057 0.034-0.080 0.011-0.034 0.023-0.069 0.046-0.103 0.011-0.023 0.023-0.057 0.034-0.080 0.023-0.034 0.034-0.069 0.057-0.103 0.011-0.023 0.023-0.046 0.046-0.069 0.011-0.034 0.034-0.069 0.057-0.103 0.011-0.023 0.023-0.046 0.046-0.069 0.023-0.034 0.034-0.069 0.057-0.103 0.023-0.023 0.034-0.046 0.046-0.069 0.023-0.034 0.057-0.069 0.080-0.103 0.011-0.023 0.023-0.034 0.046-0.057 0.034-0.046 0.069-0.091 0.103-0.137 0.011 0 0.011-0.011 0.023-0.011 0.034-0.057 0.080-0.103 0.126-0.149 0.011-0.023 0.034-0.034 0.046-0.046 0.034-0.034 0.057-0.069 0.091-0.103 0.023-0.011 0.046-0.034 0.057-0.057 0.034-0.023 0.057-0.046 0.091-0.080 0.023-0.011 0.046-0.034 0.057-0.057 0.034-0.023 0.069-0.046 0.091-0.069l0.069-0.057c0.034-0.023 0.057-0.046 0.091-0.069 0.023-0.023 0.046-0.034 0.069-0.046 0.034-0.023 0.069-0.046 0.103-0.069 0.023-0.023 0.046-0.034 0.069-0.046 0.034-0.023 0.069-0.046 0.103-0.069 0.023-0.011 0.046-0.034 0.069-0.046 0.034-0.023 0.080-0.046 0.114-0.057 0.023-0.011 0.034-0.023 0.057-0.034 0.057-0.034 0.114-0.057 0.171-0.091 0 0 0.011 0 0.011 0 0.057-0.034 0.126-0.057 0.183-0.080 0.023-0.011 0.046-0.023 0.069-0.034 0.034-0.011 0.080-0.023 0.126-0.046 0.023-0.011 0.046-0.011 0.080-0.023s0.069-0.034 0.114-0.046c0.023 0 0.057-0.011 0.080-0.023 0.046-0.011 0.080-0.023 0.114-0.034 0.034 0 0.057-0.011 0.091-0.011 0.034-0.011 0.080-0.023 0.114-0.034 0.034 0 0.057-0.011 0.091-0.011 0.034-0.011 0.080-0.023 0.126-0.023 0.023-0.011 0.057-0.011 0.080-0.011 0.046-0.011 0.091-0.011 0.126-0.023 0.034 0 0.057 0 0.091-0.011 0.046 0 0.091 0 0.137-0.011 0.023 0 0.046 0 0.069 0 0.069 0 0.149 0 0.217 0s0.149 0 0.217 0c0.023 0 0.046 0 0.069 0 0.046 0.011 0.103 0.011 0.149 0.011 0.023 0.011 0.057 0.011 0.080 0.011 0.046 0.011 0.080 0.011 0.126 0.023 0.034 0 0.057 0 0.091 0.011 0.034 0 0.080 0.011 0.114 0.023 0.034 0 0.057 0.011 0.091 0.011 0.034 0.011 0.080 0.023 0.114 0.034 0.034 0 0.057 0.011 0.091 0.011 0.034 0.011 0.080 0.023 0.114 0.034 0.023 0.011 0.057 0.023 0.080 0.023 0.046 0.011 0.080 0.034 0.126 0.046 0.023 0.011 0.046 0.011 0.069 0.023 0.046 0.023 0.091 0.034 0.137 0.046 0.011 0.011 0.034 0.023 0.057 0.034 0.057 0.023 0.126 0.046 0.183 0.080 0.011 0 0.011 0 0.011 0 0.057 0.034 0.114 0.057 0.171 0.091 0.023 0.011 0.034 0.023 0.057 0.034 0.046 0.011 0.080 0.034 0.114 0.057 0.023 0.011 0.046 0.034 0.069 0.046 0.034 0.023 0.069 0.046 0.103 0.069 0.023 0.011 0.057 0.023 0.080 0.046s0.057 0.046 0.091 0.069c0.023 0.011 0.046 0.023 0.069 0.046 0.034 0.023 0.057 0.046 0.091 0.069l0.069 0.057c0.034 0.023 0.057 0.046 0.091 0.069 0.023 0.023 0.034 0.046 0.057 0.057 0.034 0.034 0.057 0.057 0.091 0.080 0.023 0.023 0.034 0.046 0.057 0.057 0.034 0.034 0.069 0.069 0.091 0.103 0.023 0.011 0.034 0.023 0.046 0.046 0.046 0.046 0.091 0.091 0.137 0.149 0 0 0.011 0.011 0.011 0.011 0.034 0.046 0.069 0.091 0.114 0.137 0.011 0.023 0.023 0.034 0.034 0.057 0.023 0.034 0.057 0.069 0.080 0.103 0.011 0.023 0.023 0.046 0.046 0.069 0.023 0.034 0.046 0.069 0.069 0.103 0.011 0.023 0.023 0.046 0.034 0.069 0.023 0.034 0.046 0.069 0.069 0.103 0.011 0.023 0.023 0.046 0.034 0.069 0.023 0.034 0.034 0.069 0.057 0.103 0.011 0.023 0.023 0.057 0.034 0.080 0.023 0.034 0.034 0.069 0.057 0.103 0.011 0.023 0.023 0.057 0.023 0.080 0.023 0.034 0.034 0.080 0.057 0.114 0 0.023 0.011 0.046 0.023 0.069 0.011 0.046 0.034 0.091 0.046 0.137 0.011 0.023 0.011 0.034 0.023 0.057 0.023 0.057 0.034 0.126 0.057 0.194 0 0.011 0 0.023 0 0.034 0.023 0.057 0.034 0.103 0.046 0.16 0 0.023 0.011 0.046 0.011 0.069 0.011 0.034 0.011 0.069 0.023 0.114h2.96c0.149 0 0.263-0.126 0.263-0.263v-2.949h-1.12v-1.406h1.12v-1.806c0-0.857-0.514-1.611-1.326-1.92l-2.697-1.051h-10.206v9.394zM30.034 16.194h9.246l-2.594-5.943c-0.286-0.663-0.949-1.086-1.691-1.086h-4.96v7.029zM11.783 30.583c1.634 0 2.971-1.291 2.971-2.891s-1.337-2.891-2.971-2.891c-0.046 0-0.103 0-0.149 0-1.371 0.069-2.491 1.040-2.754 2.309-0.011 0.046-0.023 0.091-0.034 0.149-0.011 0.091-0.023 0.183-0.023 0.286-0.011 0.046-0.011 0.103-0.011 0.149 0 1.6 1.337 2.891 2.971 2.891zM1.44 22.377h1.12v1.406h-1.12v3.131c0 0.046 0.034 0.080 0.069 0.080h5.92c0.011-0.046 0.011-0.080 0.023-0.114 0-0.023 0.011-0.046 0.011-0.069 0.011-0.057 0.023-0.103 0.046-0.16 0-0.011 0-0.023 0-0.034 0.023-0.069 0.046-0.126 0.057-0.194 0.011-0.023 0.023-0.046 0.023-0.057 0.011-0.046 0.034-0.091 0.046-0.137 0.011-0.023 0.023-0.046 0.034-0.069 0.011-0.034 0.023-0.080 0.046-0.114 0.011-0.023 0.023-0.057 0.034-0.080 0.011-0.034 0.023-0.069 0.046-0.103 0.011-0.023 0.023-0.057 0.034-0.080 0.023-0.034 0.034-0.069 0.057-0.103 0.011-0.023 0.023-0.046 0.046-0.069 0.011-0.034 0.034-0.069 0.057-0.103 0.011-0.023 0.023-0.046 0.046-0.069 0.011-0.034 0.034-0.069 0.057-0.103 0.023-0.023 0.034-0.046 0.046-0.069 0.023-0.034 0.057-0.069 0.080-0.103 0.011-0.023 0.023-0.034 0.046-0.057 0.034-0.046 0.069-0.091 0.103-0.126 0-0.011 0.011-0.023 0.011-0.023 0.046-0.057 0.091-0.103 0.137-0.149 0.011-0.023 0.034-0.034 0.046-0.046 0.034-0.034 0.057-0.069 0.091-0.103 0.023-0.011 0.034-0.034 0.057-0.057 0.034-0.023 0.057-0.046 0.091-0.080 0.023-0.011 0.046-0.034 0.057-0.057 0.034-0.023 0.069-0.046 0.091-0.069s0.046-0.034 0.069-0.057c0.034-0.023 0.057-0.046 0.091-0.069 0.023-0.023 0.046-0.034 0.069-0.046 0.034-0.023 0.069-0.046 0.103-0.069 0.023-0.023 0.046-0.034 0.069-0.046 0.034-0.023 0.069-0.046 0.103-0.069 0.023-0.011 0.046-0.034 0.069-0.046 0.034-0.023 0.069-0.046 0.114-0.057 0.023-0.011 0.034-0.023 0.057-0.034 0.057-0.034 0.114-0.057 0.171-0.091 0 0 0.011 0 0.011 0 0.057-0.034 0.126-0.057 0.183-0.080 0.023-0.011 0.046-0.023 0.069-0.034 0.034-0.011 0.080-0.023 0.126-0.046 0.023-0.011 0.046-0.011 0.080-0.023s0.069-0.034 0.114-0.046c0.023 0 0.057-0.011 0.080-0.023 0.046-0.011 0.080-0.023 0.114-0.034 0.034 0 0.057-0.011 0.091-0.011 0.034-0.011 0.080-0.023 0.114-0.034 0.034 0 0.057-0.011 0.091-0.011 0.034-0.011 0.080-0.023 0.114-0.023 0.034-0.011 0.057-0.011 0.091-0.011 0.046-0.011 0.080-0.011 0.126-0.023 0.034 0 0.057 0 0.080-0.011 0.057 0 0.103 0 0.149-0.011 0.023 0 0.046 0 0.069 0 0.069 0 0.149 0 0.217 0s0.149 0 0.217 0c0.023 0 0.046 0 0.069 0 0.046 0.011 0.091 0.011 0.149 0.011 0.023 0.011 0.046 0.011 0.080 0.011 0.046 0.011 0.080 0.011 0.126 0.023 0.034 0 0.057 0 0.091 0.011 0.034 0 0.080 0.011 0.114 0.023 0.034 0 0.057 0.011 0.091 0.011 0.034 0.011 0.080 0.023 0.114 0.034 0.034 0 0.057 0.011 0.091 0.011 0.034 0.011 0.080 0.023 0.114 0.034 0.023 0.011 0.057 0.023 0.080 0.023 0.046 0.011 0.080 0.034 0.126 0.046 0.023 0.011 0.046 0.011 0.069 0.023 0.046 0.023 0.091 0.034 0.137 0.046 0.011 0.011 0.034 0.023 0.057 0.034 0.057 0.023 0.126 0.046 0.183 0.080 0.011 0 0.011 0 0.011 0 0.057 0.034 0.114 0.057 0.171 0.091 0.023 0.011 0.034 0.023 0.057 0.034 0.046 0.011 0.080 0.034 0.114 0.057 0.023 0.011 0.046 0.034 0.069 0.046 0.034 0.023 0.069 0.046 0.103 0.069 0.023 0.011 0.046 0.023 0.080 0.046 0.023 0.023 0.057 0.046 0.091 0.069 0.023 0.011 0.046 0.023 0.069 0.046 0.034 0.023 0.057 0.046 0.091 0.069 0.023 0.023 0.046 0.034 0.069 0.057s0.057 0.046 0.091 0.069c0.011 0.023 0.034 0.046 0.057 0.057 0.034 0.034 0.057 0.057 0.091 0.080 0.023 0.023 0.034 0.046 0.057 0.057 0.034 0.034 0.069 0.069 0.091 0.103 0.023 0.011 0.034 0.023 0.046 0.046 0.046 0.046 0.091 0.091 0.137 0.149 0 0 0.011 0.011 0.011 0.011 0.034 0.046 0.069 0.091 0.103 0.137 0.023 0.023 0.034 0.034 0.046 0.057 0.023 0.034 0.057 0.069 0.080 0.103 0.011 0.023 0.023 0.046 0.046 0.069 0.023 0.034 0.046 0.069 0.057 0.103 0.023 0.023 0.034 0.046 0.046 0.069 0.023 0.034 0.046 0.069 0.057 0.103 0.023 0.023 0.034 0.046 0.046 0.069 0.023 0.034 0.034 0.069 0.057 0.103 0.011 0.023 0.023 0.057 0.034 0.080 0.023 0.034 0.034 0.069 0.046 0.103 0.011 0.023 0.023 0.057 0.034 0.080 0.023 0.034 0.034 0.080 0.057 0.114 0 0.023 0.011 0.046 0.023 0.069 0.011 0.046 0.034 0.091 0.046 0.137 0.011 0.023 0.011 0.034 0.023 0.057 0.011 0.057 0.034 0.126 0.057 0.194 0 0.011 0 0.023 0 0.034 0.023 0.046 0.034 0.103 0.046 0.16 0 0.023 0.011 0.046 0.011 0.069 0.011 0.034 0.011 0.069 0.023 0.114h12.446v-20.903c0-0.389 0.331-0.697 0.72-0.697h10.423c0.023 0 0.069 0 0.103-0.069 0.034-0.057 0.011-0.103 0-0.114l-2.251-3.303c-0.229-0.32-0.583-0.503-0.983-0.503h-18.811c-0.114 0-0.206 0.034-0.286 0.103l-1.189 1.166c-0.343 0.343-0.811 0.526-1.303 0.526h-12.4c-0.651 0-1.166 0.514-1.166 1.143v18.034z"></path>
<path d="M20.114 7.189h4.549c0.926 0 1.68 0.731 1.68 1.634v15.040c0 0.389-0.331 0.709-0.72 0.709h-6.457c-0.4 0-0.72-0.32-0.72-0.709v-15.040c0-0.903 0.743-1.634 1.669-1.634zM19.886 23.166h5.006v-8.274h-5.006v8.274zM19.886 13.486h5.006v-4.663c0-0.126-0.103-0.229-0.229-0.229h-4.549c-0.126 0-0.229 0.103-0.229 0.229v4.663z"></path>
</symbol>
<symbol id="icon-Button-4" viewBox="0 0 46 32">
<path d="M2.606 1.794h12.4c0.114 0 0.206-0.046 0.286-0.114l1.189-1.166c0.343-0.331 0.811-0.514 1.303-0.514h18.811c0.88 0 1.691 0.423 2.171 1.131l2.263 3.303c0.32 0.469 0.343 1.063 0.080 1.566-0.274 0.491-0.8 0.8-1.383 0.8h-9.691v0.96h4.96c1.314 0 2.503 0.754 3.017 1.943l2.914 6.651 2.549 0.994c1.36 0.526 2.24 1.794 2.24 3.223v6.16c0 0.914-0.777 1.669-1.714 1.669h-2.96c-0.343 2.034-2.171 3.6-4.354 3.6s-4-1.566-4.354-3.6h-16.194c-0.354 2.034-2.171 3.6-4.354 3.6s-4-1.566-4.354-3.6h-5.92c-0.834 0-1.509-0.674-1.509-1.486v-22.571c0-1.406 1.166-2.549 2.606-2.549zM36.686 30.583c1.634 0 2.971-1.291 2.971-2.891s-1.337-2.891-2.971-2.891c-1.634 0-2.971 1.291-2.971 2.891s1.337 2.891 2.971 2.891zM30.034 26.994h2.297c0.011-0.046 0.023-0.080 0.023-0.114 0.011-0.023 0.011-0.046 0.011-0.069 0.011-0.057 0.034-0.103 0.046-0.16 0-0.011 0-0.023 0-0.034 0.023-0.069 0.046-0.137 0.057-0.194 0.011-0.023 0.023-0.034 0.023-0.057 0.011-0.046 0.034-0.091 0.046-0.137 0.011-0.023 0.023-0.046 0.034-0.069 0.011-0.034 0.023-0.080 0.046-0.114 0.011-0.023 0.023-0.057 0.034-0.080 0.011-0.034 0.023-0.069 0.046-0.103 0.011-0.023 0.023-0.057 0.034-0.080 0.023-0.034 0.034-0.069 0.057-0.103 0.011-0.023 0.023-0.046 0.046-0.069 0.011-0.034 0.034-0.069 0.057-0.103 0.011-0.023 0.023-0.046 0.046-0.069 0.023-0.034 0.034-0.069 0.057-0.103 0.023-0.023 0.034-0.046 0.046-0.069 0.023-0.034 0.057-0.069 0.080-0.103 0.011-0.023 0.023-0.034 0.046-0.057 0.034-0.046 0.069-0.091 0.103-0.137 0.011 0 0.011-0.011 0.023-0.011 0.034-0.057 0.080-0.103 0.126-0.149 0.011-0.023 0.034-0.034 0.046-0.046 0.034-0.034 0.057-0.069 0.091-0.103 0.023-0.011 0.046-0.034 0.057-0.057 0.034-0.023 0.057-0.046 0.091-0.080 0.023-0.011 0.046-0.034 0.057-0.057 0.034-0.023 0.069-0.046 0.091-0.069l0.069-0.057c0.034-0.023 0.057-0.046 0.091-0.069 0.023-0.023 0.046-0.034 0.069-0.046 0.034-0.023 0.069-0.046 0.103-0.069 0.023-0.023 0.046-0.034 0.069-0.046 0.034-0.023 0.069-0.046 0.103-0.069 0.023-0.011 0.046-0.034 0.069-0.046 0.034-0.023 0.080-0.046 0.114-0.057 0.023-0.011 0.034-0.023 0.057-0.034 0.057-0.034 0.114-0.057 0.171-0.091 0 0 0.011 0 0.011 0 0.057-0.034 0.126-0.057 0.183-0.080 0.023-0.011 0.046-0.023 0.069-0.034 0.034-0.011 0.080-0.023 0.126-0.046 0.023-0.011 0.046-0.011 0.080-0.023s0.069-0.034 0.114-0.046c0.023 0 0.057-0.011 0.080-0.023 0.046-0.011 0.080-0.023 0.114-0.034 0.034 0 0.057-0.011 0.091-0.011 0.034-0.011 0.080-0.023 0.114-0.034 0.034 0 0.057-0.011 0.091-0.011 0.034-0.011 0.080-0.023 0.126-0.023 0.023-0.011 0.057-0.011 0.080-0.011 0.046-0.011 0.091-0.011 0.126-0.023 0.034 0 0.057 0 0.091-0.011 0.046 0 0.091 0 0.137-0.011 0.023 0 0.046 0 0.069 0 0.069 0 0.149 0 0.217 0s0.149 0 0.217 0c0.023 0 0.046 0 0.069 0 0.046 0.011 0.103 0.011 0.149 0.011 0.023 0.011 0.057 0.011 0.080 0.011 0.046 0.011 0.080 0.011 0.126 0.023 0.034 0 0.057 0 0.091 0.011 0.034 0 0.080 0.011 0.114 0.023 0.034 0 0.057 0.011 0.091 0.011 0.034 0.011 0.080 0.023 0.114 0.034 0.034 0 0.057 0.011 0.091 0.011 0.034 0.011 0.080 0.023 0.114 0.034 0.023 0.011 0.057 0.023 0.080 0.023 0.046 0.011 0.080 0.034 0.126 0.046 0.023 0.011 0.046 0.011 0.069 0.023 0.046 0.023 0.091 0.034 0.137 0.046 0.011 0.011 0.034 0.023 0.057 0.034 0.057 0.023 0.126 0.046 0.183 0.080 0.011 0 0.011 0 0.011 0 0.057 0.034 0.114 0.057 0.171 0.091 0.023 0.011 0.034 0.023 0.057 0.034 0.046 0.011 0.080 0.034 0.114 0.057 0.023 0.011 0.046 0.034 0.069 0.046 0.034 0.023 0.069 0.046 0.103 0.069 0.023 0.011 0.057 0.023 0.080 0.046s0.057 0.046 0.091 0.069c0.023 0.011 0.046 0.023 0.069 0.046 0.034 0.023 0.057 0.046 0.091 0.069l0.069 0.057c0.034 0.023 0.057 0.046 0.091 0.069 0.023 0.023 0.034 0.046 0.057 0.057 0.034 0.034 0.057 0.057 0.091 0.080 0.023 0.023 0.034 0.046 0.057 0.057 0.034 0.034 0.069 0.069 0.091 0.103 0.023 0.011 0.034 0.023 0.046 0.046 0.046 0.046 0.091 0.091 0.137 0.149 0 0 0.011 0.011 0.011 0.011 0.034 0.046 0.069 0.091 0.114 0.137 0.011 0.023 0.023 0.034 0.034 0.057 0.023 0.034 0.057 0.069 0.080 0.103 0.011 0.023 0.023 0.046 0.046 0.069 0.023 0.034 0.046 0.069 0.069 0.103 0.011 0.023 0.023 0.046 0.034 0.069 0.023 0.034 0.046 0.069 0.069 0.103 0.011 0.023 0.023 0.046 0.034 0.069 0.023 0.034 0.034 0.069 0.057 0.103 0.011 0.023 0.023 0.057 0.034 0.080 0.023 0.034 0.034 0.069 0.057 0.103 0.011 0.023 0.023 0.057 0.023 0.080 0.023 0.034 0.034 0.080 0.057 0.114 0 0.023 0.011 0.046 0.023 0.069 0.011 0.046 0.034 0.091 0.046 0.137 0.011 0.023 0.011 0.034 0.023 0.057 0.023 0.057 0.034 0.126 0.057 0.194 0 0.011 0 0.023 0 0.034 0.023 0.057 0.034 0.103 0.046 0.16 0 0.023 0.011 0.046 0.011 0.069 0.011 0.034 0.011 0.069 0.023 0.114h2.96c0.149 0 0.263-0.126 0.263-0.263v-2.949h-1.12v-1.406h1.12v-1.806c0-0.857-0.514-1.611-1.326-1.92l-2.697-1.051h-10.206v9.394zM30.034 16.194h9.246l-2.594-5.943c-0.286-0.663-0.949-1.086-1.691-1.086h-4.96v7.029zM11.783 30.583c1.634 0 2.971-1.291 2.971-2.891s-1.337-2.891-2.971-2.891c-0.046 0-0.103 0-0.149 0-1.371 0.069-2.491 1.040-2.754 2.309-0.011 0.046-0.023 0.091-0.034 0.149-0.011 0.091-0.023 0.183-0.023 0.286-0.011 0.046-0.011 0.103-0.011 0.149 0 1.6 1.337 2.891 2.971 2.891zM1.44 22.377h1.12v1.406h-1.12v3.131c0 0.046 0.034 0.080 0.069 0.080h5.92c0.011-0.046 0.011-0.080 0.023-0.114 0-0.023 0.011-0.046 0.011-0.069 0.011-0.057 0.023-0.103 0.046-0.16 0-0.011 0-0.023 0-0.034 0.023-0.069 0.046-0.126 0.057-0.194 0.011-0.023 0.023-0.046 0.023-0.057 0.011-0.046 0.034-0.091 0.046-0.137 0.011-0.023 0.023-0.046 0.034-0.069 0.011-0.034 0.023-0.080 0.046-0.114 0.011-0.023 0.023-0.057 0.034-0.080 0.011-0.034 0.023-0.069 0.046-0.103 0.011-0.023 0.023-0.057 0.034-0.080 0.023-0.034 0.034-0.069 0.057-0.103 0.011-0.023 0.023-0.046 0.046-0.069 0.011-0.034 0.034-0.069 0.057-0.103 0.011-0.023 0.023-0.046 0.046-0.069 0.011-0.034 0.034-0.069 0.057-0.103 0.023-0.023 0.034-0.046 0.046-0.069 0.023-0.034 0.057-0.069 0.080-0.103 0.011-0.023 0.023-0.034 0.046-0.057 0.034-0.046 0.069-0.091 0.103-0.126 0-0.011 0.011-0.023 0.011-0.023 0.046-0.057 0.091-0.103 0.137-0.149 0.011-0.023 0.034-0.034 0.046-0.046 0.034-0.034 0.057-0.069 0.091-0.103 0.023-0.011 0.034-0.034 0.057-0.057 0.034-0.023 0.057-0.046 0.091-0.080 0.023-0.011 0.046-0.034 0.057-0.057 0.034-0.023 0.069-0.046 0.091-0.069s0.046-0.034 0.069-0.057c0.034-0.023 0.057-0.046 0.091-0.069 0.023-0.023 0.046-0.034 0.069-0.046 0.034-0.023 0.069-0.046 0.103-0.069 0.023-0.023 0.046-0.034 0.069-0.046 0.034-0.023 0.069-0.046 0.103-0.069 0.023-0.011 0.046-0.034 0.069-0.046 0.034-0.023 0.069-0.046 0.114-0.057 0.023-0.011 0.034-0.023 0.057-0.034 0.057-0.034 0.114-0.057 0.171-0.091 0 0 0.011 0 0.011 0 0.057-0.034 0.126-0.057 0.183-0.080 0.023-0.011 0.046-0.023 0.069-0.034 0.034-0.011 0.080-0.023 0.126-0.046 0.023-0.011 0.046-0.011 0.080-0.023s0.069-0.034 0.114-0.046c0.023 0 0.057-0.011 0.080-0.023 0.046-0.011 0.080-0.023 0.114-0.034 0.034 0 0.057-0.011 0.091-0.011 0.034-0.011 0.080-0.023 0.114-0.034 0.034 0 0.057-0.011 0.091-0.011 0.034-0.011 0.080-0.023 0.114-0.023 0.034-0.011 0.057-0.011 0.091-0.011 0.046-0.011 0.080-0.011 0.126-0.023 0.034 0 0.057 0 0.080-0.011 0.057 0 0.103 0 0.149-0.011 0.023 0 0.046 0 0.069 0 0.069 0 0.149 0 0.217 0s0.149 0 0.217 0c0.023 0 0.046 0 0.069 0 0.046 0.011 0.091 0.011 0.149 0.011 0.023 0.011 0.046 0.011 0.080 0.011 0.046 0.011 0.080 0.011 0.126 0.023 0.034 0 0.057 0 0.091 0.011 0.034 0 0.080 0.011 0.114 0.023 0.034 0 0.057 0.011 0.091 0.011 0.034 0.011 0.080 0.023 0.114 0.034 0.034 0 0.057 0.011 0.091 0.011 0.034 0.011 0.080 0.023 0.114 0.034 0.023 0.011 0.057 0.023 0.080 0.023 0.046 0.011 0.080 0.034 0.126 0.046 0.023 0.011 0.046 0.011 0.069 0.023 0.046 0.023 0.091 0.034 0.137 0.046 0.011 0.011 0.034 0.023 0.057 0.034 0.057 0.023 0.126 0.046 0.183 0.080 0.011 0 0.011 0 0.011 0 0.057 0.034 0.114 0.057 0.171 0.091 0.023 0.011 0.034 0.023 0.057 0.034 0.046 0.011 0.080 0.034 0.114 0.057 0.023 0.011 0.046 0.034 0.069 0.046 0.034 0.023 0.069 0.046 0.103 0.069 0.023 0.011 0.046 0.023 0.080 0.046 0.023 0.023 0.057 0.046 0.091 0.069 0.023 0.011 0.046 0.023 0.069 0.046 0.034 0.023 0.057 0.046 0.091 0.069 0.023 0.023 0.046 0.034 0.069 0.057s0.057 0.046 0.091 0.069c0.011 0.023 0.034 0.046 0.057 0.057 0.034 0.034 0.057 0.057 0.091 0.080 0.023 0.023 0.034 0.046 0.057 0.057 0.034 0.034 0.069 0.069 0.091 0.103 0.023 0.011 0.034 0.023 0.046 0.046 0.046 0.046 0.091 0.091 0.137 0.149 0 0 0.011 0.011 0.011 0.011 0.034 0.046 0.069 0.091 0.103 0.137 0.023 0.023 0.034 0.034 0.046 0.057 0.023 0.034 0.057 0.069 0.080 0.103 0.011 0.023 0.023 0.046 0.046 0.069 0.023 0.034 0.046 0.069 0.057 0.103 0.023 0.023 0.034 0.046 0.046 0.069 0.023 0.034 0.046 0.069 0.057 0.103 0.023 0.023 0.034 0.046 0.046 0.069 0.023 0.034 0.034 0.069 0.057 0.103 0.011 0.023 0.023 0.057 0.034 0.080 0.023 0.034 0.034 0.069 0.046 0.103 0.011 0.023 0.023 0.057 0.034 0.080 0.023 0.034 0.034 0.080 0.057 0.114 0 0.023 0.011 0.046 0.023 0.069 0.011 0.046 0.034 0.091 0.046 0.137 0.011 0.023 0.011 0.034 0.023 0.057 0.011 0.057 0.034 0.126 0.057 0.194 0 0.011 0 0.023 0 0.034 0.023 0.046 0.034 0.103 0.046 0.16 0 0.023 0.011 0.046 0.011 0.069 0.011 0.034 0.011 0.069 0.023 0.114h12.446v-20.903c0-0.389 0.331-0.697 0.72-0.697h10.423c0.023 0 0.069 0 0.103-0.069 0.034-0.057 0.011-0.103 0-0.114l-2.251-3.303c-0.229-0.32-0.583-0.503-0.983-0.503h-18.811c-0.114 0-0.206 0.034-0.286 0.103l-1.189 1.166c-0.343 0.343-0.811 0.526-1.303 0.526h-12.4c-0.651 0-1.166 0.514-1.166 1.143v18.034z"></path>
<path d="M20.114 7.189h4.549c0.926 0 1.68 0.731 1.68 1.634v15.040c0 0.389-0.331 0.709-0.72 0.709h-6.457c-0.4 0-0.72-0.32-0.72-0.709v-15.040c0-0.903 0.743-1.634 1.669-1.634zM19.886 23.166h5.006v-8.274h-5.006v8.274zM19.886 13.486h5.006v-4.663c0-0.126-0.103-0.229-0.229-0.229h-4.549c-0.126 0-0.229 0.103-0.229 0.229v4.663zM5.531 7.189h8.811c1.017 0 1.851 0.811 1.851 1.806v4.103c0 0.994-0.834 1.806-1.851 1.806h-8.811c-1.017 0-1.851-0.811-1.851-1.806v-4.103c0-0.994 0.834-1.806 1.851-1.806zM5.12 13.097c0 0.217 0.183 0.389 0.411 0.389h8.811c0.229 0 0.411-0.171 0.411-0.389v-4.103c0-0.217-0.183-0.4-0.411-0.4h-8.811c-0.229 0-0.411 0.183-0.411 0.4v4.103z"></path>
</symbol>
</defs>
</svg>